<svg width="25" height="22" viewBox="0 0 25 22" fill="none" xmlns="http://www.w3.org/2000/svg">
<path d="M24.0324 6.34216C24.313 6.24241 24.5003 5.97668 24.5 5.67883C24.4996 5.38099 24.3116 5.11572 24.0308 5.01663L12.7339 1.0308C12.5826 0.977363 12.4174 0.977363 12.2661 1.0308L0.969219 5.01663C0.688344 5.11568 0.500376 5.38099 0.500001 5.67883C0.499626 5.97668 0.686985 6.24241 0.967625 6.34216L5.44273 7.9331V12.5197C5.44273 13.2767 6.23244 13.9168 7.7899 14.4223C9.14745 14.863 10.8202 15.1056 12.5 15.1056C14.1799 15.1056 15.8526 14.863 17.2102 14.4223C18.7676 13.9168 19.5574 13.2767 19.5574 12.5197V7.9331L21.405 7.27624V13.6317C20.5833 13.9223 19.9929 14.7064 19.9929 15.6264C19.9929 16.5462 20.5833 17.3305 21.405 17.621V20.3062C21.405 20.6945 21.7198 21.0094 22.1081 21.0094C22.4965 21.0094 22.8113 20.6945 22.8113 20.3062V17.621C23.6329 17.3305 24.2234 16.5463 24.2234 15.6264C24.2234 14.7065 23.6329 13.9223 22.8113 13.6317V6.77627L24.0324 6.34216ZM22.1081 16.3353C21.7172 16.3353 21.3991 16.0173 21.3991 15.6263C21.3991 15.2354 21.7172 14.9173 22.1081 14.9173C22.499 14.9173 22.8171 15.2354 22.8171 15.6263C22.8171 16.0173 22.499 16.3353 22.1081 16.3353ZM12.5 2.43944L21.6907 5.68221L12.5 8.94954L3.30926 5.68216L12.5 2.43944ZM18.1511 12.4137C18.0163 12.5495 17.5339 12.8749 16.445 13.1855C15.2834 13.5169 13.8823 13.6994 12.5 13.6994C11.1177 13.6994 9.71665 13.5169 8.555 13.1855C7.46614 12.8749 6.9837 12.5496 6.84894 12.4137V8.43302L12.2644 10.3583C12.3406 10.3854 12.4203 10.3989 12.4999 10.3989C12.5796 10.3989 12.6593 10.3854 12.7354 10.3583L18.151 8.43302V12.4137H18.1511Z" fill="#2ED12E"/>
</svg>
