<svg width="28" height="24" viewBox="0 0 28 24" fill="none" xmlns="http://www.w3.org/2000/svg">
<path d="M9.39941 2H6.66685C4.65465 2 3.02344 3.49238 3.02344 5.33333V7.83333C3.02344 9.67428 4.65465 11.1667 6.66685 11.1667H9.39941C11.4116 11.1667 13.0428 9.67428 13.0428 7.83333V5.33333C13.0428 3.49238 11.4116 2 9.39941 2Z" fill="#2ED12E"/>
<path d="M21.2407 2H18.5082C16.496 2 14.8647 3.49238 14.8647 5.33333V7.83333C14.8647 9.67428 16.496 11.1667 18.5082 11.1667H21.2407C23.2529 11.1667 24.8841 9.67428 24.8841 7.83333V5.33333C24.8841 3.49238 23.2529 2 21.2407 2Z" fill="#2ED12E"/>
<path d="M9.39941 12.8333H6.66685C4.65465 12.8333 3.02344 14.3257 3.02344 16.1666V18.6666C3.02344 20.5076 4.65465 22 6.66685 22H9.39941C11.4116 22 13.0428 20.5076 13.0428 18.6666V16.1666C13.0428 14.3257 11.4116 12.8333 9.39941 12.8333Z" fill="#2ED12E"/>
<path d="M21.2407 12.8333H18.5082C16.496 12.8333 14.8647 14.3257 14.8647 16.1666V18.6666C14.8647 20.5076 16.496 22 18.5082 22H21.2407C23.2529 22 24.8841 20.5076 24.8841 18.6666V16.1666C24.8841 14.3257 23.2529 12.8333 21.2407 12.8333Z" fill="#2ED12E"/>
</svg>
