<svg width="28" height="24" viewBox="0 0 28 24" fill="none" xmlns="http://www.w3.org/2000/svg">
<path d="M9.39916 2H6.6666C4.6544 2 3.02319 3.49238 3.02319 5.33333V7.83333C3.02319 9.67428 4.6544 11.1667 6.6666 11.1667H9.39916C11.4114 11.1667 13.0426 9.67428 13.0426 7.83333V5.33333C13.0426 3.49238 11.4114 2 9.39916 2Z" fill="#9DA8C3"/>
<path d="M21.2402 2H18.5077C16.4955 2 14.8643 3.49238 14.8643 5.33333V7.83333C14.8643 9.67428 16.4955 11.1667 18.5077 11.1667H21.2402C23.2524 11.1667 24.8836 9.67428 24.8836 7.83333V5.33333C24.8836 3.49238 23.2524 2 21.2402 2Z" fill="#9DA8C3"/>
<path d="M9.39916 12.8333H6.6666C4.6544 12.8333 3.02319 14.3257 3.02319 16.1666V18.6666C3.02319 20.5076 4.6544 22 6.6666 22H9.39916C11.4114 22 13.0426 20.5076 13.0426 18.6666V16.1666C13.0426 14.3257 11.4114 12.8333 9.39916 12.8333Z" fill="#9DA8C3"/>
<path d="M21.2402 12.8333H18.5077C16.4955 12.8333 14.8643 14.3257 14.8643 16.1666V18.6666C14.8643 20.5076 16.4955 22 18.5077 22H21.2402C23.2524 22 24.8836 20.5076 24.8836 18.6666V16.1666C24.8836 14.3257 23.2524 12.8333 21.2402 12.8333Z" fill="#9DA8C3"/>
</svg>
