<svg width="25" height="24" viewBox="0 0 25 24" fill="none" xmlns="http://www.w3.org/2000/svg">
<g clip-path="url(#clip0_5_850)">
<path d="M24.0324 7.34216C24.313 7.24241 24.5003 6.97668 24.5 6.67883C24.4996 6.38099 24.3116 6.11572 24.0308 6.01663L12.7339 2.0308C12.5826 1.97736 12.4174 1.97736 12.2661 2.0308L0.969219 6.01663C0.688344 6.11568 0.500376 6.38099 0.500001 6.67883C0.499626 6.97668 0.686985 7.24241 0.967625 7.34216L5.44273 8.9331V13.5197C5.44273 14.2767 6.23244 14.9168 7.7899 15.4223C9.14745 15.863 10.8202 16.1056 12.5 16.1056C14.1799 16.1056 15.8526 15.863 17.2102 15.4223C18.7676 14.9168 19.5574 14.2767 19.5574 13.5197V8.9331L21.405 8.27624V14.6317C20.5833 14.9223 19.9929 15.7064 19.9929 16.6264C19.9929 17.5462 20.5833 18.3305 21.405 18.621V21.3062C21.405 21.6945 21.7198 22.0094 22.1081 22.0094C22.4965 22.0094 22.8113 21.6945 22.8113 21.3062V18.621C23.6329 18.3305 24.2234 17.5463 24.2234 16.6264C24.2234 15.7065 23.6329 14.9223 22.8113 14.6317V7.77627L24.0324 7.34216ZM22.1081 17.3353C21.7172 17.3353 21.3991 17.0173 21.3991 16.6263C21.3991 16.2354 21.7172 15.9173 22.1081 15.9173C22.499 15.9173 22.8171 16.2354 22.8171 16.6263C22.8171 17.0173 22.499 17.3353 22.1081 17.3353ZM12.5 3.43944L21.6907 6.68221L12.5 9.94954L3.30926 6.68216L12.5 3.43944ZM18.1511 13.4137C18.0163 13.5495 17.5339 13.8749 16.445 14.1855C15.2834 14.5169 13.8823 14.6994 12.5 14.6994C11.1177 14.6994 9.71665 14.5169 8.555 14.1855C7.46614 13.8749 6.9837 13.5496 6.84894 13.4137V9.43302L12.2644 11.3583C12.3406 11.3854 12.4203 11.3989 12.4999 11.3989C12.5796 11.3989 12.6593 11.3854 12.7354 11.3583L18.151 9.43302V13.4137H18.1511Z" fill="#9DA8C3"/>
</g>
<defs>
<clipPath id="clip0_5_850">
<rect width="24" height="24" fill="white" transform="translate(0.5)"/>
</clipPath>
</defs>
</svg>
