<svg width="21" height="25" viewBox="0 0 21 25" fill="none" xmlns="http://www.w3.org/2000/svg">
<path d="M20.2803 23.0735L14.836 16.6082C16.0296 14.9086 16.75 12.7248 16.75 10.3437C16.75 4.94166 13.0491 0.546875 8.5 0.546875C3.95088 0.546875 0.25 4.94166 0.25 10.3437C0.25 15.7458 3.95088 20.1406 8.5 20.1406C10.5051 20.1406 12.3441 19.2852 13.7753 17.8677L19.2197 24.333C19.3662 24.5069 19.5582 24.594 19.75 24.594C19.9418 24.594 20.1338 24.5069 20.2803 24.333C20.5733 23.985 20.5733 23.4212 20.2803 23.0735ZM1.75 10.3437C1.75 5.92402 4.77775 2.32812 8.5 2.32812C12.2222 2.32812 15.25 5.92402 15.25 10.3437C15.25 14.7635 12.2222 18.3594 8.5 18.3594C4.77775 18.3594 1.75 14.7635 1.75 10.3437Z" fill="#9DA8C3"/>
</svg>
